<svg xmlns="http://www.w3.org/2000/svg" viewBox="0 0 100 100">
  <g fill="none" fill-rule="evenodd">
    <rect fill="#FFF" width="100" height="100" rx="50"/>
    <g fill="#000" fill-rule="nonzero">
      <path d="M16.62 64.32c2.88 0 5.06-.78 6.54-2.34 1.48-1.56 2.22-3.887 2.22-6.98V36H11.3v3.48h10.12V55.2c0 1.867-.407 3.28-1.22 4.24-.813.96-2.007 1.44-3.58 1.44-2.347 0-4.293-1.107-5.84-3.32l-2.32 2.72c.88 1.28 2.04 2.273 3.48 2.98 1.44.707 3 1.06 4.68 1.06Zm25.44-.08c2.107 0 3.993-.467 5.66-1.4a10.19 10.19 0 0 0 3.92-3.86c.947-1.64 1.42-3.5 1.42-5.58s-.473-3.94-1.42-5.58a10.049 10.049 0 0 0-3.92-3.84c-1.667-.92-3.553-1.38-5.66-1.38s-4 .46-5.68 1.38c-1.68.92-2.993 2.2-3.94 3.84-.947 1.64-1.42 3.5-1.42 5.58s.473 3.94 1.42 5.58a10.153 10.153 0 0 0 3.94 3.86c1.68.933 3.573 1.4 5.68 1.4Zm0-3.36c-1.36 0-2.58-.313-3.66-.94s-1.933-1.507-2.56-2.64c-.627-1.133-.94-2.433-.94-3.9s.313-2.767.94-3.9 1.48-2.007 2.56-2.62 2.3-.92 3.66-.92c1.36 0 2.58.307 3.66.92s1.927 1.487 2.54 2.62.92 2.433.92 3.9-.307 2.767-.92 3.9-1.46 2.013-2.54 2.64c-1.08.627-2.3.94-3.66.94Z" fill-opacity=".87"/>
      <path d="M59.3 48.08c.72 0 1.34-.26 1.86-.78s.78-1.18.78-1.98-.253-1.453-.76-1.96c-.507-.507-1.133-.76-1.88-.76-.747 0-1.387.26-1.92.78-.533.52-.8 1.167-.8 1.94 0 .8.267 1.46.8 1.98s1.173.78 1.92.78Zm0 16.16c.72 0 1.34-.26 1.86-.78s.78-1.18.78-1.98-.253-1.453-.76-1.96c-.507-.507-1.133-.76-1.88-.76-.747 0-1.387.26-1.92.78-.533.52-.8 1.167-.8 1.94 0 .8.267 1.46.8 1.98s1.173.78 1.92.78ZM68.1 68l13.2-37.68h-3.48L64.62 68h3.48Zm11.36 0 13.2-37.68h-3.48L75.98 68h3.48Z" fill-opacity=".2"/>
    </g>
  </g>
</svg>
