<svg width="100" height="100" xmlns="http://www.w3.org/2000/svg"><path d="M16.62 64.32c2.88 0 5.06-.78 6.54-2.34 1.48-1.56 2.22-3.8866667 2.22-6.98V36H11.3v3.48h10.12V55.2c0 1.8666667-.4066667 3.28-1.22 4.24-.8133333.96-2.00666667 1.44-3.58 1.44-2.34666667 0-4.29333333-1.1066667-5.84-3.32l-2.32 2.72c.88 1.28 2.04 2.2733333 3.48 2.98s3 1.06 4.68 1.06Zm25.44-.08c2.1066667 0 3.9933333-.4666667 5.66-1.4 1.6666667-.9333333 2.9733333-2.22 3.92-3.86.9466667-1.64 1.42-3.5 1.42-5.58s-.4733333-3.94-1.42-5.58c-.9466667-1.64-2.2533333-2.92-3.92-3.84-1.6666667-.92-3.5533333-1.38-5.66-1.38-2.1066667 0-4 .46-5.68 1.38-1.68.92-2.9933333 2.2-3.94 3.84-.9466667 1.64-1.42 3.5-1.42 5.58s.4733333 3.94 1.42 5.58c.9466667 1.64 2.26 2.9266667 3.94 3.86 1.68.9333333 3.5733333 1.4 5.68 1.4Zm0-3.36c-1.36 0-2.58-.3133333-3.66-.94-1.08-.6266667-1.9333333-1.5066667-2.56-2.64-.6266667-1.1333333-.94-2.4333333-.94-3.9 0-1.4666667.3133333-2.7666667.94-3.9.6266667-1.1333333 1.48-2.0066667 2.56-2.62 1.08-.6133333 2.3-.92 3.66-.92 1.36 0 2.58.3066667 3.66.92 1.08.6133333 1.9266667 1.4866667 2.54 2.62.6133333 1.1333333.92 2.4333333.92 3.9 0 1.4666667-.3066667 2.7666667-.92 3.9-.6133333 1.1333333-1.46 2.0133333-2.54 2.64-1.08.6266667-2.3.94-3.66.94Z" fill-opacity=".87"/><path d="M59.3 48.08c.72 0 1.34-.26 1.86-.78s.78-1.18.78-1.98-.2533333-1.4533333-.76-1.96-1.1333333-.76-1.88-.76c-.7466667 0-1.3866667.26-1.92.78s-.8 1.1666667-.8 1.94c0 .8.2666667 1.46.8 1.98s1.1733333.78 1.92.78Zm0 16.16c.72 0 1.34-.26 1.86-.78s.78-1.18.78-1.98-.2533333-1.4533333-.76-1.96-1.1333333-.76-1.88-.76c-.7466667 0-1.3866667.26-1.92.78s-.8 1.1666667-.8 1.94c0 .8.2666667 1.46.8 1.98s1.1733333.78 1.92.78ZM68.1 68l13.2-37.68h-3.48L64.62 68h3.48Zm11.36 0 13.2-37.68h-3.48L75.98 68h3.48Z" fill-opacity=".2"/></svg>