<svg fill="none" xmlns="http://www.w3.org/2000/svg" viewBox="0 0 1000 200">
  <path d="M241.76 144.344 220 55h11.392l9.6 43.008 7.424 33.408h.256l8.32-33.408L268.256 55h12.288l10.88 43.008 8.32 33.28h.384l7.68-33.28L317.92 55h11.008l-22.912 89.344h-11.904L282.464 99.8l-8.192-32.768h-.256L265.568 99.8l-11.904 44.544H241.76ZM343.344 144.344V55h54.528v9.472h-43.776v29.952h41.216v9.472h-41.216v30.976h43.776v9.472h-54.528ZM417.969 55h29.952c5.547 0 10.581.939 15.104 2.816 4.523 1.877 8.363 4.693 11.52 8.448 3.243 3.67 5.717 8.32 7.424 13.952 1.707 5.547 2.56 12.032 2.56 19.456 0 7.424-.853 13.952-2.56 19.584-1.707 5.547-4.181 10.197-7.424 13.952-3.157 3.669-6.997 6.443-11.52 8.32-4.523 1.877-9.557 2.816-15.104 2.816h-29.952V55Zm29.952 79.872c3.669 0 7.04-.597 10.112-1.792 3.072-1.28 5.717-3.115 7.936-5.504 2.219-2.389 3.925-5.291 5.12-8.704 1.28-3.499 1.92-7.467 1.92-11.904V92.376c0-4.437-.64-8.363-1.92-11.776-1.195-3.499-2.901-6.443-5.12-8.832a21.146 21.146 0 0 0-7.936-5.376c-3.072-1.28-6.443-1.92-10.112-1.92h-19.2v70.4h19.2ZM503.844 55h29.952c5.547 0 10.581.939 15.104 2.816 4.523 1.877 8.363 4.693 11.52 8.448 3.243 3.67 5.717 8.32 7.424 13.952 1.707 5.547 2.56 12.032 2.56 19.456 0 7.424-.853 13.952-2.56 19.584-1.707 5.547-4.181 10.197-7.424 13.952-3.157 3.669-6.997 6.443-11.52 8.32-4.523 1.877-9.557 2.816-15.104 2.816h-29.952V55Zm29.952 79.872c3.669 0 7.04-.597 10.112-1.792 3.072-1.28 5.717-3.115 7.936-5.504 2.219-2.389 3.925-5.291 5.12-8.704 1.28-3.499 1.92-7.467 1.92-11.904V92.376c0-4.437-.64-8.363-1.92-11.776-1.195-3.499-2.901-6.443-5.12-8.832a21.146 21.146 0 0 0-7.936-5.376c-3.072-1.28-6.443-1.92-10.112-1.92h-19.2v70.4h19.2ZM589.719 144.344V55h54.528v9.472h-43.776v29.952h41.216v9.472h-41.216v30.976h43.776v9.472h-54.528ZM733.976 69.08h-.64l-7.552 14.976-21.376 38.912-21.376-38.912-7.552-14.976h-.64v75.264h-10.496V55h14.336l25.6 48.128h.64L730.648 55h13.824v89.344h-10.496V69.08ZM768.219 55h36.736c7.424 0 13.227 2.09 17.408 6.272 4.267 4.181 6.4 9.77 6.4 16.768 0 3.328-.469 6.144-1.408 8.448-.939 2.304-2.133 4.224-3.584 5.76-1.451 1.45-3.029 2.56-4.736 3.328-1.707.683-3.285 1.152-4.736 1.408v.768c1.621.085 3.413.512 5.376 1.28 2.048.768 3.968 2.005 5.76 3.712 1.792 1.621 3.285 3.755 4.48 6.4 1.28 2.56 1.92 5.675 1.92 9.344 0 3.669-.597 7.083-1.792 10.24-1.109 3.157-2.688 5.888-4.736 8.192a23.196 23.196 0 0 1-7.296 5.504c-2.816 1.28-5.888 1.92-9.216 1.92h-40.576V55Zm10.752 79.872h26.496c4.608 0 8.235-1.152 10.88-3.456 2.645-2.389 3.968-5.845 3.968-10.368v-4.352c0-4.523-1.323-7.936-3.968-10.24-2.645-2.389-6.272-3.584-10.88-3.584h-26.496v32Zm0-41.216h24.704c4.267 0 7.595-1.067 9.984-3.2 2.389-2.133 3.584-5.205 3.584-9.216v-4.352c0-4.01-1.195-7.083-3.584-9.216-2.389-2.133-5.717-3.2-9.984-3.2h-24.704v29.184ZM851.844 144.344V55h54.528v9.472h-43.776v29.952h41.216v9.472h-41.216v30.976h43.776v9.472h-54.528ZM937.221 144.344h-10.752V55h35.584c7.851 0 13.952 2.176 18.304 6.528 4.437 4.352 6.656 10.624 6.656 18.816 0 6.57-1.536 11.99-4.608 16.256-2.987 4.181-7.424 6.955-13.312 8.32l20.48 39.424h-12.16l-19.328-38.4h-20.864v38.4Zm24.832-47.616c4.267 0 7.552-1.11 9.856-3.328 2.389-2.219 3.584-5.376 3.584-9.472v-6.656c0-4.096-1.195-7.253-3.584-9.472-2.304-2.219-5.589-3.328-9.856-3.328h-24.832v32.256h24.832Z" fill="#000" fill-opacity=".54"/>
  <path d="M12.599 107.458c-19.116-22.78-16.144-56.744 6.636-75.86 22.781-19.114 56.745-16.143 75.86 6.638l46.148 54.997c19.115 22.781 16.144 56.744-6.637 75.859-22.78 19.116-56.744 16.144-75.859-6.637l-46.148-54.997Z" fill="#CDE1DC"/>
  <path d="M104.905 38.236c19.115-22.781 53.079-25.752 75.859-6.637 22.781 19.115 25.753 53.078 6.637 75.859l-46.148 54.997c-19.115 22.781-53.079 25.753-75.86 6.637-22.78-19.115-25.751-53.078-6.636-75.859l46.148-54.998Z" fill="#87B4AA"/>
  <path d="M58.451 162.103c-16.227-19.637-16.656-48.656.306-68.87L100 44.08l41.243 49.152c16.961 20.214 16.533 49.232.306 68.869l-.296.353a54.133 54.133 0 0 1-6.647 6.637 53.789 53.789 0 0 1-14.267 8.622 54.065 54.065 0 0 1-20.348 3.977 54.056 54.056 0 0 1-20.32-3.973 53.818 53.818 0 0 1-14.277-8.626 54.215 54.215 0 0 1-6.647-6.637l-.296-.352Z" fill="#64A096"/>
</svg>