<svg width="100" height="100" xmlns="http://www.w3.org/2000/svg">
  <g fill="none" fill-rule="evenodd">
    <rect fill="#FFF" width="100" height="100" rx="10"/>
    <g fill="#000" fill-rule="nonzero">
      <path d="M14.488 34.432c.416 0 .808-.08 1.176-.24.368-.16.692-.38.972-.66s.504-.6.672-.96c.168-.36.252-.748.252-1.164a2.88 2.88 0 00-.252-1.188 3.255 3.255 0 00-.672-.984c-.28-.28-.604-.5-.972-.66-.368-.16-.76-.24-1.176-.24-.416 0-.804.08-1.164.24-.36.16-.68.38-.96.66a3.084 3.084 0 00-.9 2.172c0 .416.08.804.24 1.164.16.36.38.68.66.96.28.28.6.5.96.66.36.16.748.24 1.164.24zM9.736 72.088c1.216 0 2.26-.18 3.132-.54.872-.36 1.584-.852 2.136-1.476a5.836 5.836 0 001.212-2.196c.256-.84.384-1.748.384-2.724V39.04h-4.272v26.112c0 1.296-.264 2.236-.792 2.82-.528.584-1.416.876-2.664.876-.208 0-.384-.004-.528-.012a7.374 7.374 0 00-.408-.012c-.24 0-.416.028-.528.084-.112.056-.184.188-.216.396L7 71.608c.432.16.864.28 1.296.36.432.08.912.12 1.44.12zm24.144-8.4c1.776 0 3.38-.292 4.812-.876 1.432-.584 2.648-1.42 3.648-2.508s1.768-2.4 2.304-3.936c.536-1.536.804-3.264.804-5.184 0-1.904-.268-3.628-.804-5.172-.536-1.544-1.304-2.86-2.304-3.948-1-1.088-2.216-1.928-3.648-2.52-1.432-.592-3.036-.888-4.812-.888-1.776 0-3.38.296-4.812.888-1.432.592-2.652 1.432-3.66 2.52s-1.784 2.404-2.328 3.948c-.544 1.544-.816 3.268-.816 5.172 0 1.92.272 3.648.816 5.184.544 1.536 1.32 2.848 2.328 3.936 1.008 1.088 2.228 1.924 3.66 2.508 1.432.584 3.036.876 4.812.876zm0-3.336c-1.216 0-2.272-.208-3.168-.624a5.976 5.976 0 01-2.244-1.788c-.6-.776-1.048-1.732-1.344-2.868-.296-1.136-.444-2.424-.444-3.864s.148-2.732.444-3.876c.296-1.144.744-2.108 1.344-2.892a5.93 5.93 0 012.244-1.8c.896-.416 1.952-.624 3.168-.624 2.4 0 4.192.808 5.376 2.424 1.184 1.616 1.776 3.872 1.776 6.768 0 2.88-.592 5.124-1.776 6.732-1.184 1.608-2.976 2.412-5.376 2.412z" fill-opacity=".87"/>
      <path d="M53.272 45.712a3.05 3.05 0 001.176-.228 2.916 2.916 0 001.596-1.584c.152-.36.228-.756.228-1.188a3.05 3.05 0 00-.228-1.176 2.916 2.916 0 00-.636-.96 3.079 3.079 0 00-.96-.648c-.368-.16-.76-.24-1.176-.24-.416 0-.808.08-1.176.24-.368.16-.684.376-.948.648a3.05 3.05 0 00-.852 2.136c0 .432.076.828.228 1.188.152.36.36.676.624.948.264.272.58.484.948.636.368.152.76.228 1.176.228zm0 18a3.05 3.05 0 001.176-.228 2.916 2.916 0 001.596-1.584c.152-.36.228-.756.228-1.188a3.05 3.05 0 00-.228-1.176 2.916 2.916 0 00-.636-.96 3.079 3.079 0 00-.96-.648c-.368-.16-.76-.24-1.176-.24-.416 0-.808.08-1.176.24-.368.16-.684.376-.948.648a3.05 3.05 0 00-.852 2.136c0 .432.076.828.228 1.188.152.36.36.676.624.948.264.272.58.484.948.636.368.152.76.228 1.176.228zm7.56 1.8c.464 0 .916-.136 1.356-.408.44-.272.772-.688.996-1.248L77.512 28h-1.8c-.528 0-.984.136-1.368.408-.384.272-.68.664-.888 1.176L59.032 65.512h1.8zm14.64 0c.464 0 .916-.136 1.356-.408.44-.272.772-.688.996-1.248L92.152 28h-1.8c-.528 0-.984.136-1.368.408-.384.272-.68.664-.888 1.176L73.672 65.512h1.8z" fill-opacity=".6"/>
    </g>
  </g>
</svg>
